<svg width="1023" height="500" viewBox="0 0 1023 500" fill="none" xmlns="http://www.w3.org/2000/svg">
<g clip-path="url(#clip0_7_190)">
<rect width="1023" height="500" fill="#01AA1B"/>
<path fill-rule="evenodd" clip-rule="evenodd" d="M935.871 98.9742C935.871 114.575 912.635 105.945 903.672 108.6C898.361 110.26 894.378 119.886 901.017 122.541C903.34 123.537 905.664 122.873 908.652 123.205C909.647 123.537 915.29 123.537 916.286 123.869C922.593 125.861 919.938 137.478 910.311 137.478H875.125C871.474 137.478 870.146 138.142 868.154 139.47C864.171 142.789 862.179 151.751 871.142 152.415C885.416 153.743 912.967 153.079 928.568 153.079C936.203 153.079 946.825 151.087 946.825 158.39C946.825 165.028 942.178 167.02 936.535 166.688C923.921 166.688 910.643 166.356 898.361 166.688C887.407 167.352 883.756 178.306 890.395 181.625C894.71 183.948 909.315 178.969 909.315 187.932C909.315 190.587 907.324 193.574 905.664 194.902C902.677 196.894 895.374 195.898 891.39 196.562C886.079 197.226 882.428 195.898 879.109 200.877C875.125 206.52 878.113 211.831 885.416 212.163C890.063 212.494 914.627 211.167 917.282 212.826C919.938 214.486 920.602 217.141 919.606 220.129C916.95 227.099 910.311 226.104 903.672 226.104C896.702 226.104 889.067 225.44 882.428 226.436C880.768 226.436 869.482 225.108 869.482 235.398C869.482 241.704 875.125 241.372 880.104 241.372H913.299C920.934 241.372 925.249 240.709 925.249 248.011C925.249 257.305 910.643 255.313 905.332 255.313C899.025 255.313 892.718 254.318 888.735 258.965C886.079 262.284 886.079 266.931 889.399 269.586C895.706 274.234 908.652 265.603 908.652 277.553C908.652 288.175 887.739 285.187 881.1 285.187C875.125 285.187 869.15 285.187 863.175 285.187C860.52 285.187 859.192 285.519 856.868 287.511C855.872 288.507 853.881 291.826 853.881 293.485C853.881 301.784 862.511 300.124 870.478 300.124C880.436 300.124 922.925 299.46 929.564 300.124C940.85 301.452 936.867 314.397 926.577 314.397H888.403C885.084 314.397 882.428 314.729 880.436 316.057C877.781 317.716 876.785 321.036 876.785 324.355C876.785 329.666 882.096 329.998 887.739 329.998C892.054 329.998 898.693 329.002 898.693 335.641C898.693 338.628 896.038 341.947 894.046 342.943C886.411 346.594 874.129 339.956 868.486 347.922C865.167 352.569 867.159 358.876 873.466 359.208C882.428 359.872 892.054 359.208 901.017 359.208C910.643 359.208 911.639 367.174 905.996 371.489C901.349 375.14 884.088 373.813 877.781 373.813C871.806 373.813 853.549 372.485 848.902 375.14C844.586 377.464 841.931 386.758 847.906 388.418C852.885 389.745 891.39 387.09 897.034 389.413C903.672 392.069 899.025 400.699 895.042 402.359C887.739 405.346 874.461 400.367 867.491 403.686C862.843 406.01 858.86 414.308 864.835 417.627C870.146 420.283 883.756 415.304 883.756 423.934C883.756 426.59 882.76 428.913 881.1 430.241C875.789 434.888 863.507 432.896 856.868 432.896C848.57 432.896 835.956 431.237 831.973 435.22C828.653 438.539 827.657 445.842 833.632 447.501C840.271 449.161 902.345 445.842 907.988 448.497C913.631 451.152 911.639 458.787 905.996 461.11C897.365 465.094 861.516 459.119 855.209 463.766C849.234 468.413 849.234 477.707 861.184 477.707C867.491 477.707 873.466 476.711 873.466 483.018C873.466 496.959 852.885 488.661 846.578 492.644C843.923 494.303 841.931 496.959 841.931 500.942C841.931 509.24 854.545 506.917 862.843 506.917C866.495 506.917 879.109 505.921 881.764 507.913C886.411 511.232 883.424 518.202 879.441 520.194C869.482 525.173 838.611 514.883 834.296 527.165C832.968 530.484 833.964 534.799 837.284 535.795C839.939 537.122 858.196 536.127 862.843 536.127C865.499 541.106 867.491 546.085 870.81 550.4C889.399 573.967 926.245 575.626 952.136 563.677L961.431 558.698C974.045 550.732 985.331 539.114 992.633 526.169C997.613 516.875 1000.93 508.244 1003.59 497.623C1004.25 494.967 1004.58 492.976 1005.25 489.988L1021.18 398.044C1022.84 387.422 1025.5 375.804 1027.16 364.851C1028.48 353.565 1030.81 342.943 1032.8 331.657L1038.77 298.464C1041.76 280.872 1052.72 216.146 1057.36 199.881C1060.02 190.255 1065.33 180.961 1070.97 173.991C1073.3 171.335 1074.96 168.68 1077.61 166.688L1091.88 155.734C1099.85 150.755 1112.47 146.772 1122.09 146.772C1138.02 146.772 1149.97 148.764 1161.26 160.381C1164.58 163.701 1168.23 169.012 1169.89 173.991C1174.87 186.604 1173.87 201.209 1171.88 214.818L1166.57 252.658C1163.92 271.246 1160.27 290.166 1157.28 308.754L1154.29 327.01C1151.3 345.267 1146.66 368.502 1166.24 378.792C1175.87 383.771 1188.81 381.447 1197.11 376.136C1206.07 370.825 1214.7 364.851 1223 358.876C1230.97 352.569 1238.94 346.262 1246.24 338.96L1267.15 316.721C1273.46 308.754 1280.1 300.124 1285.41 291.162C1295.37 273.902 1302.67 258.633 1309.64 239.713C1316.28 222.12 1322.59 195.234 1322.59 176.314C1322.59 157.062 1321.92 144.117 1317.27 125.529C1312.96 108.932 1307.65 95.9869 1299.35 82.0458L1293.37 73.0837C1292.71 71.7559 1292.05 71.0921 1291.38 69.7644L1282.09 58.4787C1277.44 52.504 1267.48 42.878 1260.51 38.5629C1256.53 35.5755 1252.88 32.5881 1248.56 29.9327C1244.25 27.2773 1240.26 24.6218 1235.62 22.6302C1230.64 19.9748 1226.65 17.9832 1221.34 15.9916C1211.38 12.0085 1200.43 8.68915 1189.81 6.36564C1166.24 0.722818 1137.03 0.722818 1112.8 5.36984C1104.83 7.0295 1094.54 9.02108 1086.57 11.6765C1079.93 14.332 1073.3 15.9916 1066.99 18.6471L1058.36 22.6302C1037.78 31.2604 1013.21 46.1973 996.949 60.8022L986.658 69.7644C986.326 70.0963 985.995 70.4282 985.663 70.7601L979.688 76.403C978.028 78.0626 978.36 78.3945 975.04 78.3945C951.14 78.7265 927.24 78.3945 903.34 78.3945C900.021 78.3945 899.689 78.7265 897.034 79.0584C893.05 79.0584 887.739 78.0626 884.752 80.0542C879.109 83.3735 877.117 93.6633 887.739 93.9953L927.572 93.6633C931.888 93.6633 935.871 94.6591 935.871 98.9742ZM1126.74 87.0247C1088.57 90.0121 1049.06 109.928 1024.83 136.15C1001.93 160.713 982.011 195.898 980.683 243.032C980.351 248.343 980.683 255.645 982.675 259.961C985.663 266.267 990.31 263.28 992.301 258.301C993.961 254.318 994.625 247.015 995.621 242.368C1000.6 214.154 1004.92 195.566 1019.52 171.999C1036.12 145.776 1067.98 118.226 1109.48 110.592C1180.85 97.3146 1232.63 142.125 1223.67 216.146C1222.34 227.099 1220.35 237.721 1218.69 248.675C1218.02 252.99 1216.7 262.616 1221.67 263.28C1226.65 263.944 1229.31 256.641 1231.3 253.322C1240.26 235.398 1246.57 216.81 1246.57 193.242C1246.24 170.339 1239.27 151.087 1228.98 135.155C1211.38 108.268 1176.2 83.3735 1126.74 87.0247Z" fill="white"/>
<path fill-rule="evenodd" clip-rule="evenodd" d="M785.688 145.863C785.688 150.637 788.331 153.365 792.627 153.365H827.983C838.227 153.365 841.531 137.338 830.296 137.338H794.279C790.314 137.338 785.688 142.794 785.688 145.863Z" fill="white"/>
<path fill-rule="evenodd" clip-rule="evenodd" d="M826.757 211.24H862.563C873.173 211.24 876.157 196.104 864.884 196.104H828.747C819.795 196.104 816.48 211.24 826.757 211.24Z" fill="white"/>
<path fill-rule="evenodd" clip-rule="evenodd" d="M775 290.997C775 295.089 776.654 298.499 780.624 298.499H818.669C826.278 298.499 832.233 282.472 818.007 282.472H785.917C780.624 282.472 775 286.223 775 290.997Z" fill="white"/>
<path fill-rule="evenodd" clip-rule="evenodd" d="M819.52 323.152C819.52 327.188 821.182 330.552 825.172 330.552H862.742C872.383 330.552 874.378 315.415 865.401 315.415H827.167C823.842 315.415 819.52 319.788 819.52 323.152Z" fill="white"/>
<path fill-rule="evenodd" clip-rule="evenodd" d="M834.656 294.826C834.656 299.386 841.759 302.643 846.28 298.083C851.123 292.872 848.863 286.033 842.728 286.033C838.531 286.033 834.656 290.593 834.656 294.826Z" fill="white"/>
<path fill-rule="evenodd" clip-rule="evenodd" d="M843.562 354.107C843.562 363.297 858.699 360.671 858.699 352.794C858.699 342.29 848.723 345.901 846.659 348.198C845.627 349.183 843.562 352.137 843.562 354.107Z" fill="white"/>
<path fill-rule="evenodd" clip-rule="evenodd" d="M799.043 205.526C799.043 214.912 814.18 211.784 814.18 203.023C814.18 195.514 799.043 196.14 799.043 205.526Z" fill="white"/>
<path fill-rule="evenodd" clip-rule="evenodd" d="M847.121 235.807C847.121 244.045 862.258 243.716 862.258 232.512C862.258 224.603 847.121 225.591 847.121 235.807Z" fill="white"/>
<path fill-rule="evenodd" clip-rule="evenodd" d="M849.595 152.476C860.122 152.476 862.355 138.229 851.828 138.229C848.319 138.229 845.447 141.621 844.809 144.674C843.533 148.405 845.767 152.476 849.595 152.476Z" fill="white"/>
<path fill-rule="evenodd" clip-rule="evenodd" d="M797.262 324.298C797.262 333.395 811.508 332.721 811.508 321.266C811.508 313.181 797.262 315.539 797.262 324.298Z" fill="white"/>
</g>
<defs>
<clipPath id="clip0_7_190">
<rect width="1023" height="500" fill="white"/>
</clipPath>
</defs>
</svg>
