<svg xmlns="http://www.w3.org/2000/svg" width="251" height="163" viewBox="0 0 251 163" fill="none">
  <path d="M229.475 41.5067C232.022 43.1661 230.846 44.6181 230.651 47.3146C230.651 48.1443 230.651 48.7666 230.846 49.5963C230.455 49.3888 229.867 49.3888 229.671 49.1814C223.009 47.3146 216.74 44.8255 210.274 43.1661C204.789 41.7141 199.499 40.677 194.013 39.225C195.384 38.3953 196.756 37.5656 197.931 36.5285C199.107 37.3582 200.282 37.3582 201.85 37.5656C206.748 37.9805 211.646 38.8102 216.544 39.4325C220.267 40.0547 226.144 39.6399 229.475 41.5067ZM193.033 33.4171C186.568 37.7731 180.102 42.129 174.029 47.7294C166.779 54.367 159.726 62.664 154.828 71.5833C146.207 86.7253 146.599 103.527 148.754 120.121C148.363 119.706 148.167 119.291 147.775 119.084C144.444 114.935 141.309 110.579 138.566 105.808C132.493 95.6445 125.831 86.103 120.346 75.5243C115.056 65.1531 108.59 54.5744 105.259 43.1661C102.908 34.4542 101.537 25.9498 100.361 17.0306C108.394 18.2751 116.231 19.5197 124.264 20.7642C136.803 23.0459 149.342 25.3276 161.881 27.6092C168.347 28.6464 174.616 29.6835 181.082 31.1355C184.804 31.9652 189.115 32.38 193.033 33.4171ZM96.2469 16.4083C97.0306 20.7642 97.4225 25.1201 98.4021 29.4761C99.3817 34.4542 100.557 39.4324 101.733 44.4106C104.084 55.1967 109.57 65.1531 114.664 74.6946C120.737 85.8956 127.791 96.2668 134.844 106.638C137.587 110.372 140.134 114.313 143.269 117.839C145.228 119.913 147.187 121.987 149.146 124.062C149.342 125.721 149.734 127.381 149.93 128.833C146.207 125.721 142.289 123.025 138.175 120.121C125.831 109.335 113.096 98.7559 100.361 88.3847C98.7939 86.9327 97.2266 85.4807 95.6592 84.0288C95.2673 83.8213 95.0714 83.8213 94.8755 83.8213C91.1529 80.9174 87.6263 78.0134 84.0997 75.1095C65.0951 59.7601 46.2864 43.7883 28.2615 27.1944C23.9512 23.2533 19.4449 19.9345 15.1346 15.9934C12.9794 13.9192 10.6283 11.6375 8.66911 9.14841C6.9058 6.86674 5.53434 6.24446 8.86504 6.24447C21.796 6.86674 34.531 8.94099 47.2661 10.1855C63.7236 12.0524 79.9853 14.1266 96.2469 16.4083ZM164.428 145.426C162.077 142.315 159.334 137.959 156.2 135.263C156.004 134.018 155.808 132.566 155.612 131.322C157.571 133.811 159.726 136.3 161.881 138.581C165.996 142.937 170.306 146.878 174.616 150.82C172.853 153.516 171.677 154.553 168.739 151.234C167.171 149.368 165.996 147.293 164.428 145.426ZM187.939 157.25C185.784 156.213 183.629 153.516 181.866 151.649C176.772 146.464 171.09 142.315 165.8 137.337C163.253 134.64 160.706 131.944 158.355 129.247C157.179 128.003 156.004 127.173 154.828 126.136C154.24 121.78 153.653 117.424 153.261 113.068C157.767 117.839 162.861 122.195 167.759 126.551C173.245 131.529 178.143 136.922 183.825 141.693C186.96 144.389 190.486 147.708 194.405 145.219C194.601 145.012 194.796 144.804 195.188 144.597C196.56 145.841 200.282 147.501 200.478 148.745C200.282 147.916 196.364 151.857 195.776 152.479C194.405 153.723 193.229 155.383 191.662 156.627C189.507 158.494 190.094 158.494 187.939 157.25ZM177.555 129.247C173.441 125.099 168.739 121.365 164.428 117.839C162.077 115.765 159.726 113.898 157.375 111.824C157.179 111.824 154.828 109.957 153.065 108.712C152.869 103.527 152.869 98.3411 153.457 93.1555C161.881 99.1708 169.718 106.016 178.143 111.616C183.433 115.142 188.919 118.046 194.013 121.78C195.972 123.232 199.499 125.514 201.262 127.588C202.242 128.833 202.242 127.795 200.87 129.662C198.715 132.566 196.364 138.167 193.229 140.241C188.919 143.145 180.494 132.151 177.555 129.247ZM206.16 133.396C205.376 133.188 204.789 132.774 204.005 132.774C205.572 130.285 206.748 128.21 204.397 125.721C199.89 120.743 193.425 117.217 187.939 113.898C180.886 109.335 174.42 104.149 167.759 98.9634C168.543 99.3782 169.326 99.7931 169.914 100.208C176.576 103.734 184.021 106.016 191.074 109.335C194.601 110.994 198.127 113.068 201.654 114.935C203.417 115.972 205.964 118.254 207.923 118.254C209.099 118.254 209.687 117.839 210.079 117.217L210.274 117.424C212.626 118.876 215.173 119.913 217.524 120.95C220.462 122.195 222.618 122.402 220.854 126.136C219.287 128.833 217.524 131.322 215.564 134.018C214.977 134.848 213.801 137.959 213.017 138.374C212.234 138.581 207.336 134.018 206.16 133.396ZM186.764 102.697C180.494 100 174.42 97.5114 168.543 94.1926C165.996 92.948 163.449 91.7035 160.902 90.6664C158.942 89.8367 156.395 89.4218 154.436 88.3847C155.22 84.4436 156.395 80.5025 158.159 76.7689C160.902 78.6357 164.428 79.8803 166.779 80.9174C173.245 83.8213 179.514 87.1401 185.784 90.2515C191.858 92.948 197.735 95.852 203.809 98.5485C205.964 99.3782 208.315 100.415 210.47 101.452C213.017 102.49 213.801 102.904 211.842 105.394C210.666 107.26 209.491 108.92 208.511 110.787C209.099 109.542 207.14 113.483 207.727 113.898C206.944 113.691 204.985 112.031 204.397 111.824C198.715 108.505 192.837 105.394 186.764 102.697ZM199.695 92.1183C192.249 88.7995 184.804 85.4807 177.555 81.5397C173.637 79.6729 169.718 77.5986 165.8 75.7318C164.624 75.1095 162.077 74.2798 160.118 73.2427C162.077 69.9239 164.232 66.6051 166.584 63.7011C176.184 72.8278 188.527 78.6357 198.911 86.7253C201.458 88.5921 203.809 90.6664 206.356 92.7406C207.727 93.7777 209.295 95.4371 211.254 95.6446C214.193 95.852 215.564 92.948 217.132 90.2515C220.854 92.5332 224.773 94.6074 228.887 96.0594C229.671 96.4743 230.65 96.4743 231.434 96.8891C233.785 97.9262 232.806 97.0965 232.414 98.5485C232.022 99.7931 230.259 101.66 229.475 102.904C229.083 103.319 227.124 107.675 226.34 108.297C226.732 107.883 223.401 106.638 223.009 106.431C221.246 105.601 219.287 104.356 217.328 104.356C218.111 102.904 217.915 101.245 215.76 99.5856C211.45 96.0594 204.789 94.4 199.695 92.1183ZM214.389 86.9327C213.801 87.7624 212.234 90.8738 211.646 91.0812C210.274 91.4961 206.552 86.9327 205.376 85.8956C201.85 82.9917 198.127 80.0877 194.209 77.3912C189.311 74.0724 184.413 71.1684 179.514 68.0571C178.535 67.4348 170.502 62.664 168.151 61.8343C170.502 58.9304 172.853 56.2339 175.4 53.7448C185.196 59.1378 194.209 65.3605 204.201 70.3387C208.903 72.6204 213.801 74.9021 218.503 77.5986C221.442 79.258 220.658 79.6729 218.503 82.162C217.132 83.8213 215.564 85.2733 214.389 86.9327ZM231.042 82.5768C229.279 81.5397 226.928 80.9174 224.773 80.9174C225.361 79.6729 225.556 78.6357 224.969 77.5986C223.597 73.6575 215.956 71.9981 212.821 70.3387C204.397 66.3977 196.56 61.6269 188.723 56.8561C197.931 60.5898 207.14 64.116 216.544 67.4348C221.834 69.509 227.908 71.9981 233.589 72.413C236.528 72.8278 237.312 71.1684 237.704 68.4719C240.251 69.7165 242.994 70.3387 245.541 70.7536C245.737 70.7536 246.52 70.7536 247.108 70.961C246.716 71.1684 246.324 71.7907 246.128 71.9982C244.757 74.2798 243.777 76.7689 242.602 79.258C242.014 80.5026 240.055 86.3105 239.075 86.7253C237.116 87.1402 232.61 83.1991 231.042 82.5768ZM234.569 63.7012C233.785 64.3234 233.393 65.3606 233.981 66.1902C233.981 66.3977 233.981 66.3977 233.981 66.6051C233.393 68.0571 234.569 67.6422 233.198 68.0571C232.61 68.0571 230.846 67.4348 230.063 67.2274C227.908 66.6051 225.556 65.9828 223.401 65.3606C218.503 63.7012 213.605 62.0418 208.707 60.1749C198.911 56.2339 188.527 54.1596 178.535 50.8408C182.061 47.522 185.784 44.8255 189.507 42.129C200.674 45.2403 212.234 47.1072 223.009 51.2557C226.928 52.9151 232.414 53.3299 235.94 55.6116C237.704 56.6487 237.312 55.4042 236.724 57.6858C236.332 58.9304 235.549 59.9675 235.157 61.0046C234.961 62.0418 234.765 62.8715 234.569 63.7012ZM225.556 36.5285C220.071 35.4914 214.389 34.6617 208.903 33.832C206.748 33.4171 204.201 32.7949 201.654 32.7949C201.85 31.7577 201.458 30.5132 200.478 30.0983C194.209 27.6092 186.764 26.987 180.102 25.7424C172.461 24.083 164.82 23.2533 157.179 21.5939C141.897 18.69 126.615 16.2009 111.333 13.7118C83.7078 9.14843 55.8867 5.20735 28.2615 1.88855C21.4041 0.851424 14.5468 0.0217239 7.6895 0.0217227C4.16287 -0.185703 0.440324 1.05885 0.0484766 5.20734C-0.539295 9.77068 4.35879 14.1266 7.10172 17.0306C11.2161 21.3865 15.9183 24.7053 20.6204 28.6463C41.1924 45.6552 61.5685 63.0789 82.5323 79.6728C90.1733 85.4807 97.8143 91.496 105.651 97.5114C106.435 98.3411 107.219 99.1708 108.002 100.208C112.117 104.564 116.623 108.297 121.129 112.446C130.925 121.365 142.485 128.21 151.693 137.752C152.477 138.581 153.457 138.581 154.24 138.374C155.416 140.448 157.179 142.108 158.551 143.975C161.685 147.708 164.232 152.479 167.563 156.005C170.894 159.531 175.792 157.665 177.751 153.723C178.535 154.553 179.514 155.383 180.298 156.213C183.041 159.117 187.547 165.132 191.858 162.228C194.405 160.569 196.56 157.665 198.911 155.59C200.674 153.723 203.613 151.857 204.593 149.16C204.985 148.123 204.789 147.501 204.201 146.671C202.633 144.389 199.89 143.56 197.931 141.693C199.499 139.826 200.674 137.544 202.046 135.678C203.025 137.13 204.593 137.959 205.964 139.204C207.923 140.656 209.883 142.523 212.234 142.73C213.605 142.937 214.781 142.315 215.76 141.071C217.328 138.789 218.503 135.885 220.071 133.603C222.03 130.699 226.732 124.891 225.165 121.158C224.185 119.084 221.05 118.461 219.287 117.424C217.132 116.387 213.997 115.35 212.038 113.691C213.017 111.409 213.997 109.335 215.564 107.26C215.76 106.846 215.956 106.638 216.348 106.223C217.915 106.638 219.875 108.92 221.246 109.749C222.814 110.579 224.969 112.446 226.536 112.653C228.103 112.653 228.887 111.616 229.671 110.372C231.042 107.883 232.414 105.394 233.981 102.904C235.745 100.208 238.096 96.4743 234.569 94.4C232.414 92.948 229.671 92.5332 227.32 91.2886C224.773 89.8367 222.226 88.5921 219.483 86.9327C220.658 86.103 221.834 84.8585 223.009 83.4065C225.556 84.6511 228.299 85.6882 230.846 86.9327C233.198 88.1773 235.745 90.2515 238.487 90.2515C242.798 90.4589 244.561 83.6139 246.324 80.2951C247.696 77.5986 253.182 70.961 250.047 67.6422C249.067 66.6051 247.304 66.8125 245.933 66.3977C243.581 65.7754 241.034 64.9457 238.683 64.116C239.663 62.0418 240.643 59.9675 241.622 57.6858C242.014 56.4413 242.406 55.6116 242.014 54.367C240.839 51.6705 236.724 50.6334 233.393 50.0111C234.569 46.8998 236.528 42.7513 234.569 39.8473C232.806 36.9434 228.299 36.9434 225.556 36.5285Z" fill="white" fill-opacity="0.3"/>
</svg>
<svg xmlns="http://www.w3.org/2000/svg" width="219" height="116" viewBox="0 0 219 116" fill="none">
  <path d="M-2.0447e-06 11.7675C1.56128 10.3223 2.9274 8.87722 4.29352 7.43209C4.48868 7.22564 4.48868 7.0192 4.68384 6.6063C6.63544 7.63854 8.58704 8.87722 10.5386 10.1159C17.3692 13.832 23.6144 15.69 31.2256 16.1029C37.4707 16.5158 43.7158 17.7544 49.5706 20.4383C45.6674 23.1221 41.7642 27.4575 40.3981 28.9026C37.0804 32.8251 33.9578 37.3669 32.7869 42.3216C31.2256 49.1344 32.3966 55.3278 32.7869 62.1405C32.7869 62.5534 33.3724 62.5534 33.3724 62.1405C33.9578 56.36 34.153 50.5795 35.9094 45.2119C37.6659 40.4636 40.3981 36.1282 43.911 32.6186C46.0578 30.5542 48.2045 28.4897 50.3513 26.4252C51.5222 25.393 53.0835 24.3608 54.4496 23.3285C60.6948 27.251 65.9641 30.9671 73.3802 31.7928C76.5027 32.2057 79.6253 32.4122 82.5527 32.4122C75.3318 42.3216 70.0624 52.2311 69.477 65.2373C69.477 65.4437 69.8673 65.6502 69.8673 65.2373C71.2334 58.631 74.1608 51.1989 77.8688 45.6248C80.4059 41.9088 85.2849 37.9863 86.651 33.6509C86.651 33.238 86.651 33.0315 86.651 32.6186C90.5542 32.8251 94.2623 33.238 98.1655 34.0638C104.996 35.7153 111.241 38.1927 116.511 42.7345C110.461 45.2119 103.63 56.7729 101.874 60.489C97.1897 69.7791 99.3364 80.5143 101.874 90.2173C101.874 90.2173 102.069 90.2173 102.069 90.0109C100.703 81.1337 100.507 69.7791 105.972 62.1406C108.704 58.2181 112.022 53.8827 115.535 50.5795C116.901 49.3408 118.852 48.3086 120.023 46.8635C124.707 52.8504 127.635 60.0761 128.806 67.7146C130.172 75.9725 130.562 83.611 126.269 91.0431C123.341 95.9979 119.828 100.746 115.34 104.256C113.973 104.669 112.607 105.288 111.241 105.701C106.362 107.352 101.483 108.178 96.409 107.972C92.1155 107.765 88.7978 106.32 85.4801 104.462C84.5043 102.604 83.3333 100.54 82.5527 98.6817C80.9914 94.1398 80.0156 89.3916 80.6011 84.4368C81.772 75.3532 86.651 65.0308 92.701 58.4245C93.6768 57.3923 92.1155 55.7407 90.9446 56.5665C83.5285 62.1406 78.064 73.4951 76.6979 82.7853C75.9172 87.9464 76.6979 92.6947 78.2591 97.443C78.6495 98.4752 79.0398 99.5075 79.6253 100.54C74.3559 96.4107 69.2818 91.2496 63.0367 89.3916C58.548 87.9464 53.8642 87.9464 49.1803 87.3271C48.3997 85.0562 47.4239 82.9917 47.0336 80.5143C46.4481 76.5918 46.4481 71.8436 46.8384 67.9211C47.619 58.8374 53.669 49.5473 58.548 42.3216C59.1335 41.2894 57.9625 39.4314 56.9867 40.4636C50.7416 46.8635 44.1062 56.1536 42.74 65.2373C41.9594 69.9855 42.1546 75.5596 43.1303 80.3079C43.7158 82.9917 45.2771 85.0562 46.4481 87.1206C43.1303 86.5013 39.8126 85.4691 36.8852 83.4046C30.8353 79.0692 26.9321 72.4629 21.8579 67.3017C18.5402 63.7921 14.8322 61.3148 10.7338 59.2503C10.929 57.5987 11.3193 55.9471 11.5144 54.502C11.7096 52.2311 11.5144 49.7537 11.9048 47.4828C13.0757 41.0829 14.4418 34.4766 17.7596 28.9026C17.9547 28.4897 17.3692 28.0768 17.1741 28.4897C9.75799 36.1282 6.83059 46.8635 7.80639 57.5987C7.02575 57.1858 6.24511 56.7729 5.46447 56.36C3.70803 55.5342 1.75643 54.502 -9.29084e-06 53.4698L-1.04746e-05 60.2825C3.51287 62.1405 7.22091 63.5857 10.5386 65.6501C18.5402 70.3984 23.4192 78.4499 30.2498 84.6433C36.8852 90.6302 43.911 92.0754 52.498 92.9011C57.9625 93.314 63.0367 94.1398 67.7205 97.6494C71.4285 100.333 74.9414 103.224 78.6495 105.907C85.6752 110.656 92.3107 113.339 100.898 112.72C108.314 112.101 117.681 108.798 124.122 103.017C127.049 107.559 131.343 110.449 135.441 113.752C140.125 117.675 144.614 121.391 149.688 124.694C153.396 127.378 159.251 132.539 163.934 132.952C167.252 133.158 170.18 130.268 172.131 127.378C177.986 132.539 183.255 138.113 188.525 143.481C193.208 148.023 199.649 150.087 204.918 145.132C210.578 139.765 206.87 135.223 202.381 130.887C195.941 124.281 188.329 118.913 180.328 114.578C175.254 111.688 170.18 108.591 165.105 105.701C171.155 108.178 177.4 110.449 183.646 113.133C190.086 116.023 199.063 122.63 206.479 121.184C210.968 120.359 218.384 115.197 218.97 109.83C219.555 103.843 211.553 99.9204 207.65 97.8559C199.649 93.5205 191.062 92.0754 182.475 90.4238C181.108 90.2174 179.742 89.8045 178.376 89.598C179.157 87.74 179.742 85.882 177.791 83.8175C176.62 82.7853 175.059 82.3724 173.692 81.753C170.57 80.7208 167.838 79.2757 164.91 77.8305C159.446 75.3532 153.591 74.3209 147.931 73.0823C143.443 72.05 139.149 70.8113 134.66 70.6049C134.465 68.9533 134.075 67.0953 133.685 65.2373C132.123 56.36 128.025 47.6893 122.17 41.083C116.12 34.2702 108.119 31.38 99.7268 29.3155C89.5784 26.8381 78.064 29.5219 68.306 25.5994C63.6222 23.7414 59.9141 20.0254 55.6206 17.3416C52.3029 15.2771 48.79 13.832 45.082 12.5933C35.7143 9.70301 25.7611 11.561 16.5886 7.22565C12.2951 5.16118 8.19672 2.06447 3.51288 0.619342C2.34192 0.206447 1.17096 2.01415e-07 0 0L-2.0447e-06 11.7675ZM127.635 99.7139L127.439 99.5075C128.415 98.2688 129.196 97.0301 129.781 95.585C132.123 97.0301 134.856 98.0623 137.393 99.5075C142.076 101.985 146.175 105.288 150.273 108.385C157.299 113.752 163.544 119.739 169.984 125.52C170.18 125.726 170.375 125.933 170.57 126.139C169.204 127.378 167.447 128.616 166.276 128.823C162.568 129.442 158.665 126.139 155.738 124.281C152.225 122.01 148.712 119.533 145.394 117.055C138.954 111.894 133.294 105.701 127.635 99.7139ZM179.157 127.997C173.692 123.042 167.838 118.501 162.178 113.546C153.201 105.701 142.662 95.9979 130.757 93.1076C130.952 92.9012 131.148 92.6947 131.343 92.4883C131.538 91.8689 131.928 91.2496 132.123 90.6302C136.807 94.3463 143.247 97.0301 148.126 99.5075C155.152 103.43 161.983 107.352 169.009 111.275C176.034 115.404 183.646 119.326 190.281 124.488C193.208 126.758 196.331 129.442 199.063 132.126C201.405 134.397 203.942 136.049 203.357 139.352C202.966 143.687 198.673 144.306 195.55 143.274C191.647 141.829 189.5 138.32 186.768 135.429C184.231 132.745 181.694 130.475 179.157 127.997ZM171.35 103.43C164.715 100.746 158.08 97.8559 151.444 94.9656C148.322 93.727 145.004 92.0754 141.881 90.6302C141.491 90.4238 137.783 88.7722 135.636 87.9464C135.051 87.74 134.27 87.3271 133.685 86.9142C134.075 85.6755 134.27 84.4368 134.66 83.1982C140.32 84.8497 145.98 86.9142 151.834 88.3593C159.055 90.2174 166.667 91.2496 174.083 92.6947C181.499 94.1399 189.11 94.9656 196.331 97.0301C200.624 98.2688 216.042 103.43 214.676 109.623C213.895 113.752 206.674 117.881 203.162 117.262C199.649 116.643 195.745 113.959 192.623 112.514C185.597 109.21 178.376 106.32 171.35 103.43ZM176.229 89.1851C168.813 87.9464 161.397 86.5013 153.981 84.4368C149.688 83.4046 145.199 82.3724 141.101 80.9272C138.759 80.1014 137.002 79.2757 135.051 79.6886C135.051 78.4499 135.051 77.0047 135.051 75.7661C137.978 75.7661 140.906 76.3854 143.833 76.7983C147.931 77.6241 152.03 78.037 156.128 78.8628C160.617 79.895 164.52 81.753 168.618 83.6111C170.18 84.2304 172.717 84.4368 174.083 85.4691C175.644 86.5013 176.034 87.74 176.229 89.1851Z" fill="white" fill-opacity="0.3"/>
</svg>