<svg width="38" height="39" viewBox="0 0 38 39" fill="none" xmlns="http://www.w3.org/2000/svg">
<path d="M7.20643 14.625C7.03015 14.6246 6.85619 14.5835 6.6973 14.5048C6.5384 14.4261 6.3986 14.3117 6.28813 14.17C6.17767 14.0283 6.09934 13.8629 6.05888 13.6859C6.01843 13.509 6.01687 13.3249 6.05433 13.1473C6.99964 8.45508 12.3909 4.875 18.9047 4.875C25.4185 4.875 30.8097 8.45508 31.755 13.1473C31.7925 13.3249 31.7909 13.509 31.7505 13.6859C31.71 13.8629 31.6317 14.0283 31.5212 14.17C31.4107 14.3117 31.2709 14.4261 31.1121 14.5048C30.9532 14.5835 30.7792 14.6246 30.6029 14.625H7.20643Z" stroke="white" stroke-width="2" stroke-linecap="round" stroke-linejoin="round"/>
<path d="M30.7227 25.5938V28.0312C30.7227 29.3242 30.2247 30.5642 29.3383 31.4784C28.4519 32.3926 27.2497 32.9062 25.9961 32.9062H11.8164C10.5628 32.9062 9.36062 32.3926 8.47422 31.4784C7.58782 30.5642 7.08984 29.3242 7.08984 28.0312V25.5938" stroke="white" stroke-width="2" stroke-linecap="round" stroke-linejoin="round"/>
<path d="M4.13672 26.8125L10.0449 24.375L15.9531 26.8125L21.8613 24.375L27.7695 26.8125L33.6777 24.375" stroke="white" stroke-width="2" stroke-linecap="round" stroke-linejoin="round"/>
<path d="M3.54688 19.5H34.2695" stroke="white" stroke-width="2" stroke-linecap="round" stroke-linejoin="round"/>
</svg>
