<svg width="127" height="35" viewBox="0 0 127 35" fill="none" xmlns="http://www.w3.org/2000/svg">
<g id="Logo">
<path id="Vector" fill-rule="evenodd" clip-rule="evenodd" d="M8.66514 9.5948C8.66514 10.4345 7.41447 9.97 6.93207 10.1129C6.6462 10.2023 6.4318 10.7204 6.78914 10.8633C6.9142 10.9169 7.03927 10.8812 7.20007 10.8991C7.25367 10.9169 7.5574 10.9169 7.611 10.9348C7.95047 11.042 7.80754 11.6673 7.2894 11.6673H5.39553C5.199 11.6673 5.12753 11.7031 5.02033 11.7745C4.80593 11.9532 4.69873 12.4356 5.18113 12.4713C5.9494 12.5428 7.43234 12.5071 8.27207 12.5071C8.68301 12.5071 9.25474 12.3999 9.25474 12.7929C9.25474 13.1503 9.00461 13.2575 8.70087 13.2396C8.02194 13.2396 7.30727 13.2217 6.6462 13.2396C6.0566 13.2753 5.86007 13.8649 6.2174 14.0436C6.44967 14.1687 7.2358 13.9007 7.2358 14.3831C7.2358 14.526 7.1286 14.6868 7.03927 14.7583C6.87847 14.8655 6.4854 14.8119 6.271 14.8476C5.98513 14.8833 5.7886 14.8119 5.60993 15.0799C5.39553 15.3836 5.55633 15.6695 5.9494 15.6873C6.19953 15.7052 7.52167 15.6337 7.6646 15.7231C7.80754 15.8124 7.84327 15.9553 7.78967 16.1161C7.64674 16.4913 7.2894 16.4377 6.93207 16.4377C6.55687 16.4377 6.14593 16.402 5.7886 16.4556C5.69927 16.4556 5.0918 16.3841 5.0918 16.938C5.0918 17.2775 5.39553 17.2596 5.66353 17.2596H7.4502C7.86114 17.2596 8.09341 17.2239 8.09341 17.6169C8.09341 18.1172 7.30727 18.01 7.0214 18.01C6.68194 18.01 6.34247 17.9564 6.12807 18.2066C5.98513 18.3852 5.98513 18.6354 6.1638 18.7783C6.50327 19.0284 7.20007 18.5639 7.20007 19.2071C7.20007 19.7788 6.07447 19.618 5.71713 19.618C5.39553 19.618 5.07393 19.618 4.75233 19.618C4.6094 19.618 4.53793 19.6359 4.41286 19.7431C4.35926 19.7967 4.25206 19.9754 4.25206 20.0647C4.25206 20.5114 4.7166 20.422 5.1454 20.422C5.6814 20.422 7.96834 20.3863 8.32567 20.422C8.93314 20.4935 8.71874 21.1903 8.16487 21.1903H6.1102C5.93153 21.1903 5.7886 21.2082 5.6814 21.2796C5.53847 21.369 5.48487 21.5476 5.48487 21.7263C5.48487 22.0122 5.77073 22.03 6.07447 22.03C6.30674 22.03 6.66407 21.9764 6.66407 22.3338C6.66407 22.4946 6.52114 22.6732 6.41394 22.7268C6.003 22.9234 5.34193 22.566 5.0382 22.9948C4.85953 23.245 4.96673 23.5844 5.3062 23.6023C5.7886 23.638 6.30674 23.6023 6.78914 23.6023C7.30727 23.6023 7.36087 24.0311 7.05714 24.2634C6.807 24.4599 5.87793 24.3884 5.53847 24.3884C5.21687 24.3884 4.2342 24.317 3.98406 24.4599C3.7518 24.585 3.60886 25.0852 3.93046 25.1746C4.19846 25.246 6.271 25.1031 6.57474 25.2282C6.93207 25.3711 6.68194 25.8356 6.46754 25.925C6.07447 26.0858 5.3598 25.8178 4.9846 25.9964C4.73447 26.1215 4.52006 26.5682 4.84167 26.7468C5.12753 26.8898 5.86007 26.6218 5.86007 27.0863C5.86007 27.2292 5.80647 27.3543 5.71713 27.4258C5.43127 27.6759 4.7702 27.5687 4.41286 27.5687C3.9662 27.5687 3.28726 27.4794 3.07286 27.6938C2.89419 27.8724 2.84059 28.2655 3.1622 28.3548C3.51953 28.4442 6.8606 28.2655 7.16434 28.4084C7.46807 28.5514 7.36087 28.9623 7.05714 29.0874C6.5926 29.3018 4.663 28.9802 4.32353 29.2303C4.00193 29.4804 4.00193 29.9807 4.64513 29.9807C4.9846 29.9807 5.3062 29.9271 5.3062 30.2666C5.3062 31.017 4.19846 30.5703 3.859 30.7847C3.71606 30.874 3.60886 31.017 3.60886 31.2314C3.60886 31.678 4.2878 31.553 4.73447 31.553C4.931 31.553 5.60993 31.4994 5.75287 31.6066C6.003 31.7852 5.8422 32.1604 5.6278 32.2676C5.0918 32.5356 3.4302 31.9818 3.19793 32.6428C3.12646 32.8215 3.18006 33.0538 3.35873 33.1074C3.50166 33.1788 4.48433 33.1252 4.73447 33.1252C4.8774 33.3932 4.9846 33.6612 5.16327 33.8935C6.1638 35.1621 8.14701 35.2514 9.54061 34.6082L10.0409 34.3402C10.7198 33.9114 11.3273 33.286 11.7203 32.5892C11.9883 32.089 12.167 31.6244 12.3099 31.0527C12.3457 30.9098 12.3635 30.8026 12.3993 30.6418L13.2569 25.6927C13.3462 25.121 13.4892 24.4956 13.5785 23.906C13.65 23.2986 13.775 22.7268 13.8822 22.1194L14.2038 20.3327C14.3646 19.3858 14.9542 15.9017 15.2044 15.0263C15.3473 14.5081 15.6332 14.0079 15.9369 13.6327C16.062 13.4897 16.1513 13.3468 16.2942 13.2396L17.0625 12.65C17.4913 12.382 18.1702 12.1676 18.6884 12.1676C19.546 12.1676 20.1892 12.2748 20.7966 12.9001C20.9753 13.0788 21.1718 13.3647 21.2612 13.6327C21.5292 14.3116 21.4756 15.0977 21.3684 15.8303L21.0825 17.8671C20.9396 18.8676 20.743 19.886 20.5822 20.8866L20.4214 21.8692C20.2606 22.8519 20.0105 24.1026 21.0646 24.6564C21.5828 24.9244 22.2796 24.7994 22.7262 24.5135C23.2086 24.2276 23.6732 23.906 24.1198 23.5844C24.5486 23.245 24.9774 22.9055 25.3705 22.5124L26.4961 21.3154C26.8356 20.8866 27.1929 20.422 27.4788 19.9396C28.0148 19.0106 28.4078 18.1887 28.783 17.1703C29.1404 16.2233 29.4798 14.7761 29.4798 13.7577C29.4798 12.7215 29.4441 12.0247 29.194 11.0241C28.9617 10.1308 28.6758 9.434 28.2292 8.6836L27.9076 8.2012C27.8718 8.12973 27.8361 8.094 27.8004 8.02253L27.3001 7.41506C27.05 7.09346 26.514 6.57533 26.1388 6.34306C25.9244 6.18226 25.7278 6.02146 25.4956 5.87852C25.2633 5.73559 25.0489 5.59266 24.7988 5.48546C24.5308 5.34252 24.3164 5.23532 24.0305 5.12812C23.4945 4.91372 22.9049 4.73505 22.3332 4.60999C21.0646 4.30625 19.4924 4.30625 18.1881 4.55639C17.7593 4.64572 17.2054 4.75292 16.7766 4.89585C16.4193 5.03879 16.062 5.12812 15.7225 5.27106L15.258 5.48546C14.1502 5.94999 12.8281 6.75399 11.9526 7.54013L11.3987 8.02253C11.3809 8.0404 11.363 8.05826 11.3451 8.07613L11.0235 8.37986C10.9342 8.4692 10.9521 8.48706 10.7734 8.48706C9.48701 8.50493 8.20061 8.48706 6.9142 8.48706C6.73554 8.48706 6.71767 8.50493 6.57474 8.5228C6.36034 8.5228 6.07447 8.4692 5.91367 8.5764C5.60993 8.75506 5.50273 9.30893 6.07447 9.3268L8.21847 9.30893C8.45074 9.30893 8.66514 9.36253 8.66514 9.5948ZM18.9385 8.9516C16.8838 9.1124 14.7577 10.1844 13.4534 11.5959C12.2206 12.918 11.1486 14.8119 11.0771 17.3489C11.0593 17.6348 11.0771 18.0279 11.1843 18.2601C11.3451 18.5996 11.5953 18.4388 11.7025 18.1708C11.7918 17.9564 11.8275 17.5633 11.8811 17.3132C12.1491 15.7945 12.3814 14.794 13.1675 13.5255C14.0609 12.114 15.7761 10.6311 18.0094 10.2201C21.8508 9.50546 24.638 11.9175 24.1556 15.9017C24.0841 16.4913 23.9769 17.0631 23.8876 17.6527C23.8518 17.8849 23.7804 18.4031 24.0484 18.4388C24.3164 18.4746 24.4593 18.0815 24.5665 17.9028C25.0489 16.938 25.3884 15.9375 25.3884 14.6689C25.3705 13.4361 24.9953 12.3999 24.4414 11.5423C23.4945 10.0951 21.6006 8.75506 18.9385 8.9516Z" fill="white"/>
<path id="Vector_2" fill-rule="evenodd" clip-rule="evenodd" d="M62.0317 21.8153C62.7999 21.8153 64.533 21.8868 65.1583 21.6902C65.6765 21.5473 66.0517 21.2614 66.3197 20.7969C66.6591 20.2252 66.7306 19.4569 66.8378 18.7601L67.0879 17.438C67.1415 17.1342 67.1773 16.8126 67.2487 16.5446C67.3559 15.955 67.4274 15.3833 67.5525 14.7937C67.6775 14.2041 67.8026 13.7038 68.017 13.2214C68.2671 12.6854 68.4994 12.3995 68.8925 12.0422C69.3749 11.5777 70.2503 11.4169 70.9114 11.5419C71.1794 11.5955 71.4295 11.7563 71.5367 12.0065C71.6975 12.3995 71.5725 13.0249 71.4831 13.4715C71.4117 13.7931 71.3759 14.079 71.3223 14.4185C71.2509 14.7579 71.1973 15.0617 71.1437 15.3833L70.6255 18.2956C70.5183 18.8852 70.3218 19.8678 70.3218 20.4574C70.3218 21.4401 71.1258 21.8153 72.037 21.8153H74.3418C75.4495 21.8153 76.3071 21.2436 76.593 20.2073C76.6823 19.85 77.3792 15.8299 77.4685 15.2761C77.5578 14.7222 77.6829 14.2041 77.7722 13.6502C78.076 11.7027 78.8264 9.16566 77.5221 7.43259C77.0575 6.80726 76.5037 6.41419 75.7175 6.14619C74.5383 5.77099 72.8589 5.69952 71.6439 6.05686C70.8042 6.30699 70.1967 6.62859 69.5178 7.16459L69.1069 7.53979C69.0354 7.61126 68.9639 7.66486 68.9103 7.73633C68.8389 7.82566 68.8031 7.87926 68.7138 7.95073L69.4285 4.14512C69.4642 3.96645 69.4821 3.78779 69.5178 3.59125C69.6607 2.84085 69.8573 2.03685 69.8037 1.34005C69.7858 0.964846 69.5714 0.661112 69.3391 0.500312C69.0711 0.285911 68.7138 0.178711 68.3565 0.178711H65.6407C64.8725 0.178711 64.2471 0.518178 63.8719 1.08991C63.4967 1.64378 63.3895 2.46565 63.2823 3.18032L62.5498 7.37899C62.4069 8.16513 62.1746 9.32646 62.0674 10.059C62.0317 10.327 61.9602 10.595 61.9245 10.8451C61.8887 11.131 61.8351 11.3454 61.7994 11.6134L60.7274 17.7059C60.638 18.1705 60.3522 19.5998 60.3164 20.0108C60.245 20.6361 60.3522 21.2257 60.9239 21.5652C61.2098 21.7438 61.6565 21.8153 62.0317 21.8153Z" fill="white"/>
<path id="Vector_3" fill-rule="evenodd" clip-rule="evenodd" d="M29.8015 17.6529C29.8015 18.2961 29.7836 18.5105 29.9266 19.1715C29.9802 19.4931 30.1052 19.7254 30.2124 20.0113C30.4268 20.5294 31.07 21.2262 31.5703 21.4763C32.3743 21.9051 32.017 21.6907 32.7852 21.9587C33.1783 22.1195 34.3575 22.2089 34.822 22.2089C35.2151 22.2089 35.5188 22.2446 35.9298 22.2446C36.3407 22.2446 36.6266 22.2089 37.0375 22.2089C37.8058 22.2089 38.5026 22.1731 39.2887 22.1731C39.789 22.1731 40.8789 22.0659 41.3434 21.9587C42.5226 21.655 43.2551 21.2441 44.1306 20.4937C44.2735 20.3507 44.6666 19.8862 44.7917 19.7254C45.0597 19.3502 45.4527 18.6534 45.5957 18.2425C45.8101 17.635 46.0066 17.1169 46.0959 16.4737C46.2031 15.7054 46.4711 14.4011 46.6141 13.5614C46.6677 13.2219 46.7213 12.9539 46.7749 12.5966C46.7927 12.4358 46.8285 12.2928 46.8642 12.132L47.2037 10.1667C47.293 9.72004 47.5967 8.0227 47.5967 7.71897C47.5967 7.1651 47.5074 6.75417 47.025 6.43257C46.4533 6.05737 44.7023 6.16457 43.8805 6.16457C42.6834 6.16457 41.7186 6.5219 41.3613 7.68324C41.2183 8.1299 40.8253 10.5955 40.7181 11.1315L40.4143 12.8467C40.3071 13.4542 40.2178 13.9902 40.1106 14.5976C39.9676 15.3838 39.8068 16.2057 38.8956 16.4201C38.3239 16.5451 37.0911 16.6345 36.6802 16.1878C36.2692 15.7233 36.5015 15.0086 36.5908 14.4547C36.6266 14.2582 36.6623 14.008 36.698 13.8294L37.234 10.8099C37.2698 10.5955 37.3055 10.4168 37.3412 10.1846C37.4663 9.46991 37.7522 8.20137 37.7522 7.5403C37.7522 7.04003 37.5199 6.6827 37.1447 6.43257C36.5908 6.05737 34.8399 6.16457 34.018 6.16457C33.1068 6.16457 32.41 6.32537 31.874 6.96857C31.7847 7.07577 31.7668 7.1115 31.6954 7.25443C31.3738 7.84404 31.3202 8.52297 31.1951 9.23764L30.6055 12.5608C30.5698 12.7038 30.5519 12.811 30.534 12.9718L30.3196 14.2403C30.2482 14.5262 30.2303 14.7763 30.1767 15.08C30.0338 15.7768 29.8015 16.9918 29.8015 17.6529Z" fill="white"/>
<path id="Vector_4" fill-rule="evenodd" clip-rule="evenodd" d="M54.0836 16.6155C54.0836 16.8477 54.0658 17.0264 53.7799 17.1872C53.3511 17.4195 52.5292 17.3301 52.1004 17.2051C51.0284 16.8835 51.225 16.8656 50.5282 16.5976C49.6884 16.2939 49.0274 16.2939 48.2948 16.8299C48.009 17.0443 47.8124 17.3659 47.5802 17.6339L46.9191 18.4915C46.2938 19.4205 46.3116 20.2781 47.3122 20.9392C48.4914 21.7253 50.814 22.172 52.1362 22.172C53.8156 22.172 55.102 21.904 56.5492 21.1893C58.0322 20.4389 59.2114 19.0989 59.7474 17.5088C60.0332 16.6512 60.194 15.2219 59.7831 14.4C59.7474 14.3285 59.7295 14.2928 59.6938 14.2035C59.5151 13.7925 58.9612 13.2744 58.6039 13.0243C58.0322 12.6669 57.4604 12.4347 56.7994 12.256C56.6386 12.2203 56.5135 12.1667 56.317 12.1309C56.1204 12.0773 55.9596 12.0416 55.781 12.0059C55.37 11.9165 53.9407 11.7021 53.9407 11.2555C53.9407 10.7373 54.4946 10.6301 54.9234 10.6301C56.5671 10.6301 58.1572 12.0416 59.3722 10.9696L59.5687 10.7731C59.8367 10.4515 59.8188 10.4693 60.0511 10.112C60.5156 9.41519 61.0516 8.78986 61.0516 7.91439C61.0516 6.96745 60.2119 6.68159 59.6044 6.43145C59.3186 6.32425 58.586 6.12772 58.2644 6.05625C56.9066 5.77038 54.7268 5.71678 53.369 6.09198C53.1546 6.16345 52.958 6.18132 52.7615 6.25278C52.2255 6.44932 51.6716 6.62799 51.1714 6.93172C50.4567 7.36052 50.0994 7.59279 49.4919 8.25386C48.7236 9.07572 48.2055 10.2728 48.0804 11.3984L48.0268 12.0773C48.0447 12.7027 48.1876 13.328 48.5092 13.864C48.5628 13.9533 48.6164 14.0069 48.67 14.0784C48.9559 14.4536 49.2954 14.7216 49.6884 14.9717C50.4746 15.4363 51.6002 15.74 52.4756 15.9365C52.7258 15.9723 54.0836 16.2581 54.0836 16.6155Z" fill="white"/>
<path id="Vector_5" fill-rule="evenodd" clip-rule="evenodd" d="M80.4688 19.7606C80.4688 20.1536 80.5402 20.4931 80.6832 20.7968C80.8797 21.1542 81.1298 21.44 81.4514 21.6366C81.5586 21.708 81.6658 21.7795 81.7909 21.8331C82.041 21.9224 82.3805 21.9939 82.72 21.9939H93.7437C94.7442 21.9939 95.4232 21.5472 96.0664 20.904C96.7274 20.2608 97.1026 19.3139 97.1026 18.367C97.1026 17.2056 96.1557 15.9907 94.8693 15.9907H90.1168C89.7952 15.9907 89.6344 16.2766 89.4736 16.4552C89.2056 16.7411 89.1341 16.7232 88.7946 16.9019C88.08 17.2592 87.4904 17.3843 86.6506 17.3843C86.2576 17.3843 85.9181 17.2592 85.6322 17.1342C84.8818 16.8304 83.8813 15.7584 84.3458 14.7758C84.5066 14.472 84.6853 14.2934 84.8997 14.0611C85.132 13.8288 85.3642 13.6502 85.6322 13.4715C86.6864 12.8104 88.205 12.5782 89.3128 13.275C89.5272 13.4 89.6344 13.5072 89.813 13.668C89.956 13.811 90.0632 14.0254 90.349 14.0254H95.2624C95.6554 14.0254 96.2629 13.8288 96.513 13.668C96.7989 13.4894 97.0669 13.3107 97.3349 13.0784C97.3528 13.0606 97.3528 13.0606 97.3706 13.0427C97.9067 12.5424 98.4963 11.5598 98.4963 10.8094C98.4963 10.0947 98.4963 9.70162 98.1389 9.09415C98.0496 8.95122 97.9067 8.77255 97.7994 8.64748C97.6565 8.50455 97.5493 8.41522 97.3706 8.30802C96.9597 8.07575 96.6202 8.00428 96.12 8.00428L91.4568 7.98642C91.0637 7.96855 91.0637 7.98642 90.8314 8.12935C90.6528 8.23655 90.4741 8.29015 90.2776 8.34375C89.2234 8.64748 88.0621 8.54028 87.0437 8.34375C86.8114 8.30802 85.5786 7.96855 85.5786 7.86135C85.5786 7.68268 85.668 7.66481 85.8466 7.68268C85.9896 7.71841 86.0789 7.73628 86.2397 7.73628C86.7221 7.78988 88.7768 8.09362 89.009 7.86135C89.0626 7.82561 89.1341 7.70055 89.1341 7.64695C89.1341 7.34321 88.7232 7.41468 88.4194 7.41468L87.4725 7.37895C87.133 7.32535 86.4005 7.36108 86.061 7.30748C85.9717 7.30748 85.7037 7.34321 85.7037 7.23601C85.7037 6.96801 86.0432 7.05735 86.5434 7.05735H88.5624C88.884 7.05735 89.42 7.16455 89.42 6.84295C89.42 6.68215 89.2056 6.71788 89.0448 6.73575H86.0074C85.7573 6.71788 85.7752 6.64641 85.8466 6.48561L86.7936 6.44988C86.9365 6.43201 87.0616 6.43201 87.2581 6.43201C87.4546 6.43201 87.544 6.39628 87.7226 6.39628C88.1693 6.39628 88.7053 6.39628 89.152 6.34268C89.42 6.28908 89.5272 5.84241 89.1877 5.84241C88.4194 5.84241 87.0616 5.94961 86.2933 6.05681C86.1682 6.07468 86.0074 6.09255 85.9181 6.11041C85.9181 5.75308 86.1861 5.80668 86.5077 5.71734C86.9901 5.55654 87.4725 5.48508 87.9906 5.41361C88.8304 5.28854 89.9738 5.23494 90.76 5.57441C91.0458 5.69948 91.2781 5.93174 91.421 5.98534C91.5104 6.02108 91.6354 6.03894 91.7426 6.03894H96.3344C97.192 6.03894 97.9424 5.82454 98.5499 5.27068L99.0859 4.71681C99.3896 4.37734 99.604 3.96641 99.7648 3.50187C100.301 1.85814 99.4075 0 97.6029 0H86.74C86.4898 0 86.2397 0.0178667 86.0253 0.0714668C85.6144 0.178667 85.2392 0.321601 84.8818 0.553868C84.3994 0.875468 83.9885 1.32214 83.7205 1.84027C83.524 2.23334 83.4525 2.60854 83.3632 3.10881L82.8808 5.87814C82.845 6.11041 82.8093 6.32481 82.7736 6.55708C82.72 6.80721 82.6664 7.03948 82.6485 7.27175C82.5413 8.04002 82.2912 9.21922 82.1482 10.0232C82.0768 10.4878 82.0053 10.9344 81.916 11.4168L81.5408 13.4894C81.4872 13.7216 81.4693 13.9896 81.4157 14.204L80.8082 17.6523C80.7189 18.2598 80.4688 19.2067 80.4688 19.7606Z" fill="white"/>
<path id="Vector_6" fill-rule="evenodd" clip-rule="evenodd" d="M104.643 18.8676C104.054 18.8676 103.518 18.6889 103.214 18.2423C103.018 17.9743 103.035 17.7599 103.035 17.4383C103.035 16.5271 104.232 15.9196 105.001 15.7052C106.073 15.3836 106.984 15.33 108.36 15.33L108.199 16.0625C107.967 16.9737 107.431 17.6527 106.698 18.2065C106.162 18.5996 105.304 18.8676 104.643 18.8676ZM100.588 8.80865C100.588 9.59478 100.695 9.64838 100.891 10.3809C101.016 10.8097 101.124 11.1135 101.445 11.4351C101.946 11.9532 102.821 11.7567 103.411 11.5423C103.536 11.5065 103.661 11.4351 103.804 11.3993C103.964 11.3636 104.072 11.2921 104.232 11.2564C105.001 11.042 106.698 10.6311 107.413 11.2743L107.556 11.4351C107.716 11.7031 107.609 12.0425 107.52 12.382C105.948 12.382 103.857 12.5785 102.41 13.0609C102.142 13.1503 101.91 13.2217 101.66 13.3111C101.552 13.3468 101.427 13.4004 101.338 13.454C100.105 13.9543 99.0511 14.6868 98.3007 15.7945C97.9255 16.3663 97.586 17.2775 97.586 18.01C97.586 18.8497 97.5682 19.5465 98.0327 20.3327L98.2828 20.7615C98.6759 21.2975 99.1762 21.6727 99.8015 21.9585C100.409 22.2444 101.731 22.5124 102.464 22.6375C102.66 22.6553 102.857 22.6732 103.071 22.7089C103.25 22.7268 103.536 22.7447 103.714 22.7447L104.375 22.7804C105.948 22.7804 107.52 22.566 109.021 22.1372C109.307 22.0479 109.521 21.9585 109.789 21.8692L110.307 21.6548C110.736 21.4404 111.022 21.2796 111.415 20.9759C112.487 20.1897 112.737 19.2071 112.934 17.9385L113.219 16.2055C113.362 15.4372 113.916 12.3463 113.952 11.846C114.006 11.2028 114.006 10.4703 113.898 9.93425C113.863 9.77345 113.827 9.70198 113.791 9.54118C113.702 9.13025 113.541 8.80865 113.344 8.46918C112.308 6.59318 109.932 5.84277 107.859 5.84277C106.037 5.84277 105.197 6.00357 103.5 6.48597C103.393 6.50384 103.321 6.52171 103.232 6.55744L102.339 6.87904C101.82 7.05771 101.195 7.37931 100.891 7.87958C100.748 8.11185 100.588 8.45131 100.588 8.80865Z" fill="white"/>
<path id="Vector_7" fill-rule="evenodd" clip-rule="evenodd" d="M117.616 6.52249C117.062 6.52249 116.633 6.54035 116.24 6.71902C115.865 6.86196 115.668 7.04062 115.436 7.30862C114.989 7.86249 114.918 8.54143 114.793 9.27396C114.704 9.79209 114.632 10.1137 114.829 10.6497C114.936 10.9356 115.186 11.15 115.454 11.275C115.811 11.4358 116.061 11.4537 116.526 11.4537C116.526 11.9361 115.561 16.4385 115.561 17.3497C115.561 18.3324 115.686 19.0113 116.151 19.7617C116.454 20.2798 116.937 20.7444 117.455 21.066C117.544 21.1017 117.58 21.1375 117.652 21.1911L118.313 21.5127C119.617 22.0308 121.993 22.4775 123.405 21.87C124.012 21.602 124.28 21.2089 124.512 20.6372C124.584 20.4406 124.852 18.9577 124.888 18.6718C124.959 18.2073 125.191 17.3854 124.602 17.0102C123.958 16.5814 123.226 16.7244 122.708 16.4385C121.975 16.0097 122.279 15.1342 122.386 14.4553L122.922 11.4537C123.458 11.4537 124.191 11.4894 124.637 11.4001C124.87 11.3465 125.102 11.2572 125.298 11.15C126.263 10.614 126.317 9.63129 126.496 8.77369C126.96 6.41529 125.441 6.52249 123.78 6.52249C123.833 6.27235 123.869 6.02222 123.923 5.77209C123.994 5.25395 124.28 3.87822 124.28 3.44941C124.28 2.12728 123.28 1.96648 122.208 1.96648C121.35 1.96648 119.849 1.85928 119.152 2.25235C118.116 2.84195 118.116 3.86035 117.902 4.87875C117.866 5.11102 117.812 5.43262 117.777 5.68275C117.741 5.82569 117.723 5.93289 117.687 6.09369C117.669 6.23662 117.652 6.37955 117.616 6.52249Z" fill="white"/>
<path id="Vector_8" fill-rule="evenodd" clip-rule="evenodd" d="M0.574219 12.1127C0.574219 12.3628 0.717152 12.5058 0.949419 12.5058H2.86116C3.41502 12.5058 3.59369 11.666 2.98622 11.666H1.03875C0.824353 11.666 0.574219 11.9519 0.574219 12.1127Z" fill="white"/>
<path id="Vector_9" fill-rule="evenodd" clip-rule="evenodd" d="M2.8071 15.651H4.73671C5.30844 15.651 5.46924 14.8291 4.86177 14.8291H2.9143C2.4319 14.8291 2.25323 15.651 2.8071 15.651Z" fill="white"/>
<path id="Vector_10" fill-rule="evenodd" clip-rule="evenodd" d="M0 19.9398C0 20.1542 0.0893335 20.3329 0.303734 20.3329H2.35841C2.76934 20.3329 3.09094 19.4932 2.32267 19.4932H0.589601C0.303734 19.4932 0 19.6897 0 19.9398Z" fill="white"/>
<path id="Vector_11" fill-rule="evenodd" clip-rule="evenodd" d="M2.41016 21.6727C2.41016 21.8871 2.49949 22.0657 2.71389 22.0657H4.73283C5.25096 22.0657 5.35816 21.2617 4.87576 21.2617H2.82109C2.64242 21.2617 2.41016 21.494 2.41016 21.6727Z" fill="white"/>
<path id="Vector_12" fill-rule="evenodd" clip-rule="evenodd" d="M3.21875 20.1543C3.21875 20.4044 3.61182 20.5831 3.86195 20.3329C4.12995 20.0471 4.00489 19.6719 3.66542 19.6719C3.43315 19.6719 3.21875 19.922 3.21875 20.1543Z" fill="white"/>
<path id="Vector_13" fill-rule="evenodd" clip-rule="evenodd" d="M3.71875 23.3166C3.71875 23.8169 4.50488 23.674 4.50488 23.2452C4.50488 22.6734 3.98675 22.87 3.87955 22.995C3.82595 23.0486 3.71875 23.2094 3.71875 23.3166Z" fill="white"/>
<path id="Vector_14" fill-rule="evenodd" clip-rule="evenodd" d="M1.30469 15.3299C1.30469 15.8659 2.09082 15.6873 2.09082 15.187C2.09082 14.7582 1.30469 14.7939 1.30469 15.3299Z" fill="white"/>
<path id="Vector_15" fill-rule="evenodd" clip-rule="evenodd" d="M3.89453 16.9376C3.89453 17.3843 4.68067 17.3664 4.68067 16.7589C4.68067 16.3301 3.89453 16.3837 3.89453 16.9376Z" fill="white"/>
<path id="Vector_16" fill-rule="evenodd" clip-rule="evenodd" d="M4.02256 12.4721C4.61217 12.4721 4.73723 11.7217 4.14763 11.7217C3.9511 11.7217 3.7903 11.9003 3.75456 12.0611C3.6831 12.2577 3.80816 12.4721 4.02256 12.4721Z" fill="white"/>
<path id="Vector_17" fill-rule="evenodd" clip-rule="evenodd" d="M1.19531 21.708C1.19531 22.1905 1.96358 22.1547 1.96358 21.5472C1.96358 21.1184 1.19531 21.2435 1.19531 21.708Z" fill="white"/>
</g>
</svg>
