<svg width="213" height="59" viewBox="0 0 213 59" fill="none" xmlns="http://www.w3.org/2000/svg">
<path fill-rule="evenodd" clip-rule="evenodd" d="M14.5809 16.1448C14.5809 17.5579 12.4763 16.7762 11.6646 17.0167C11.1836 17.167 10.8228 18.0389 11.4241 18.2794C11.6345 18.3696 11.845 18.3095 12.1156 18.3395C12.2058 18.3696 12.7169 18.3696 12.8071 18.3997C13.3783 18.5801 13.1378 19.6323 12.2659 19.6323H9.07903C8.74832 19.6323 8.62806 19.6925 8.44767 19.8127C8.08689 20.1134 7.9065 20.9251 8.71825 20.9852C10.011 21.1055 12.5064 21.0454 13.9195 21.0454C14.6109 21.0454 15.573 20.865 15.573 21.5264C15.573 22.1277 15.1521 22.3081 14.641 22.278C13.4985 22.278 12.296 22.248 11.1836 22.278C10.1914 22.3382 9.86071 23.3303 10.462 23.6309C10.8528 23.8414 12.1757 23.3904 12.1757 24.2022C12.1757 24.4427 11.9953 24.7133 11.845 24.8335C11.5744 25.0139 10.913 24.9237 10.5522 24.9839C10.0712 25.044 9.74045 24.9237 9.43981 25.3747C9.07903 25.8858 9.34961 26.3668 10.011 26.3969C10.4319 26.427 12.6567 26.3067 12.8973 26.457C13.1378 26.6073 13.1979 26.8479 13.1077 27.1185C12.8672 27.7498 12.2659 27.6596 11.6646 27.6596C11.0332 27.6596 10.3417 27.5995 9.74045 27.6897C9.59013 27.6897 8.56793 27.5694 8.56793 28.5014C8.56793 29.0727 9.07903 29.0426 9.53 29.0426H12.5365C13.228 29.0426 13.6188 28.9825 13.6188 29.6439C13.6188 30.4857 12.296 30.3053 11.8149 30.3053C11.2437 30.3053 10.6725 30.2151 10.3117 30.636C10.0712 30.9367 10.0712 31.3576 10.3718 31.5981C10.943 32.019 12.1156 31.2373 12.1156 32.3197C12.1156 33.2817 10.2215 33.0111 9.62019 33.0111C9.07903 33.0111 8.53786 33.0111 7.9967 33.0111C7.75618 33.0111 7.63592 33.0412 7.42547 33.2216C7.33527 33.3118 7.15488 33.6124 7.15488 33.7628C7.15488 34.5144 7.93657 34.3641 8.65812 34.3641C9.56006 34.3641 13.4084 34.3039 14.0096 34.3641C15.0319 34.4843 14.6711 35.6568 13.7391 35.6568H10.2816C9.98097 35.6568 9.74045 35.6869 9.56006 35.8072C9.31955 35.9575 9.22935 36.2581 9.22935 36.5588C9.22935 37.0398 9.71039 37.0699 10.2215 37.0699C10.6123 37.0699 11.2136 36.9797 11.2136 37.581C11.2136 37.8516 10.9731 38.1522 10.7927 38.2424C10.1012 38.5731 8.98883 37.9718 8.47773 38.6934C8.17709 39.1143 8.35747 39.6855 8.92871 39.7156C9.74045 39.7757 10.6123 39.7156 11.4241 39.7156C12.296 39.7156 12.3862 40.4371 11.8751 40.828C11.4541 41.1587 9.89078 41.0384 9.31955 41.0384C8.77838 41.0384 7.12482 40.9182 6.70391 41.1587C6.31307 41.3691 6.07255 42.211 6.61372 42.3613C7.06469 42.4815 10.5522 42.241 11.0633 42.4515C11.6646 42.692 11.2437 43.4737 10.8829 43.624C10.2215 43.8946 9.0189 43.4436 8.38754 43.7443C7.96663 43.9547 7.60586 44.7063 8.14702 45.007C8.62806 45.2475 9.86071 44.7965 9.86071 45.5782C9.86071 45.8187 9.77052 46.0292 9.62019 46.1494C9.13916 46.5703 8.02676 46.39 7.42547 46.39C6.67385 46.39 5.53139 46.2396 5.17061 46.6004C4.86996 46.9011 4.77977 47.5625 5.32093 47.7128C5.92223 47.8631 11.5443 47.5625 12.0554 47.803C12.5665 48.0435 12.3862 48.735 11.8751 48.9455C11.0934 49.3062 7.84637 48.7651 7.27514 49.186C6.73398 49.6069 6.73398 50.4487 7.81631 50.4487C8.38754 50.4487 8.92871 50.3585 8.92871 50.9297C8.92871 52.1925 7.06469 51.4408 6.49346 51.8016C6.25294 51.9519 6.07255 52.1925 6.07255 52.5532C6.07255 53.3049 7.21501 53.0944 7.96663 53.0944C8.29735 53.0944 9.43981 53.0042 9.68032 53.1846C10.1012 53.4852 9.83065 54.1166 9.46987 54.297C8.56793 54.748 5.77191 53.816 5.38106 54.9283C5.2608 55.229 5.351 55.6198 5.65165 55.71C5.89216 55.8303 7.54573 55.7401 7.96663 55.7401C8.20715 56.1911 8.38754 56.642 8.68819 57.0329C10.3718 59.1675 13.709 59.3178 16.0541 58.2355L16.8959 57.7845C18.0383 57.0629 19.0605 56.0107 19.722 54.8382C20.1729 53.9963 20.4736 53.2147 20.7141 52.2526C20.7742 52.0121 20.8043 51.8317 20.8644 51.5611L22.3075 43.2332C22.4578 42.2711 22.6984 41.2188 22.8487 40.2267C22.9689 39.2045 23.1794 38.2424 23.3598 37.2202L23.901 34.2137C24.1715 32.6203 25.1637 26.7577 25.5846 25.2845C25.8251 24.4126 26.3061 23.5708 26.8172 22.9395C27.0277 22.6989 27.178 22.4584 27.4185 22.278L28.7113 21.2859C29.4329 20.8349 30.5753 20.4741 31.4472 20.4741C32.8903 20.4741 33.9726 20.6545 34.9948 21.7068C35.2955 22.0074 35.6262 22.4885 35.7765 22.9395C36.2275 24.0819 36.1373 25.4048 35.9569 26.6374L35.4759 30.0648C35.2354 31.7484 34.9047 33.4621 34.6341 35.1457L34.3635 36.7993C34.0929 38.4529 33.672 40.5574 35.4458 41.4894C36.3177 41.9404 37.4902 41.7299 38.2418 41.2489C39.0536 40.7678 39.8353 40.2267 40.5869 39.6855C41.3084 39.1143 42.03 38.5431 42.6914 37.8816L44.5855 35.8673C45.1567 35.1457 45.758 34.3641 46.2391 33.5523C47.141 31.9889 47.8024 30.606 48.4338 28.8923C49.0351 27.2988 49.6063 24.8636 49.6063 23.1499C49.6063 21.4061 49.5462 20.2336 49.1253 18.55C48.7344 17.0468 48.2534 15.8742 47.5018 14.6115L46.9606 13.7998C46.9005 13.6795 46.8404 13.6194 46.7802 13.4991L45.9384 12.4769C45.5175 11.9357 44.6156 11.0639 43.9842 10.673C43.6234 10.4024 43.2927 10.1319 42.9019 9.89135C42.511 9.65083 42.1503 9.41031 41.7294 9.22992C41.2784 8.9894 40.9176 8.80901 40.4366 8.62863C39.5346 8.26785 38.5425 7.9672 37.5804 7.75675C35.4458 7.24565 32.8001 7.24565 30.6054 7.66655C29.8838 7.81688 28.9518 7.99727 28.2303 8.23778C27.629 8.4783 27.0277 8.62863 26.4565 8.86914L25.6748 9.22992C23.8108 10.0116 21.586 11.3645 20.1128 12.6874L19.1808 13.4991C19.1507 13.5292 19.1207 13.5592 19.0906 13.5893L18.5494 14.1004C18.3991 14.2507 18.4292 14.2808 18.1285 14.2808C15.9639 14.3109 13.7992 14.2808 11.6345 14.2808C11.3339 14.2808 11.3038 14.3109 11.0633 14.3409C10.7025 14.3409 10.2215 14.2507 9.95091 14.4311C9.43981 14.7318 9.25942 15.6638 10.2215 15.6938L13.8293 15.6638C14.2201 15.6638 14.5809 15.754 14.5809 16.1448ZM31.8681 15.0625C28.4107 15.3331 24.833 17.137 22.6382 19.5121C20.5638 21.7369 18.7599 24.9237 18.6396 29.1929C18.6096 29.674 18.6396 30.3354 18.82 30.7262C19.0906 31.2975 19.5115 31.0269 19.6919 30.5759C19.8422 30.2151 19.9023 29.5537 19.9925 29.1328C20.4435 26.5773 20.8343 24.8937 22.1572 22.7591C23.6604 20.3839 26.5467 17.8886 30.3047 17.1971C36.7687 15.9945 41.4588 20.0532 40.647 26.7577C40.5268 27.7498 40.3464 28.7119 40.196 29.704C40.1359 30.0949 40.0157 30.9667 40.4666 31.0269C40.9176 31.087 41.1581 30.4256 41.3385 30.1249C42.1503 28.5014 42.7215 26.8178 42.7215 24.6832C42.6914 22.6087 42.0601 20.865 41.1281 19.4219C39.5346 16.9866 36.3478 14.7318 31.8681 15.0625Z" fill="white"/>
<path fill-rule="evenodd" clip-rule="evenodd" d="M104.384 36.7092C105.677 36.7092 108.593 36.8295 109.645 36.4987C110.517 36.2582 111.149 35.7772 111.6 34.9955C112.171 34.0334 112.291 32.7407 112.471 31.5681L112.892 29.3433C112.983 28.8322 113.043 28.2911 113.163 27.8401C113.343 26.848 113.464 25.8859 113.674 24.8938C113.884 23.9016 114.095 23.0598 114.456 22.2481C114.877 21.3461 115.267 20.8651 115.929 20.2638C116.741 19.4821 118.214 19.2115 119.326 19.422C119.777 19.5122 120.198 19.7827 120.378 20.2037C120.649 20.8651 120.439 21.9173 120.288 22.669C120.168 23.2101 120.108 23.6912 120.018 24.2624C119.897 24.8336 119.807 25.3447 119.717 25.8859L118.845 30.7864C118.665 31.7786 118.334 33.4321 118.334 34.4243C118.334 36.0778 119.687 36.7092 121.22 36.7092H125.099C126.963 36.7092 128.406 35.7471 128.887 34.0034C129.037 33.4021 130.21 26.6375 130.36 25.7055C130.51 24.7735 130.721 23.9016 130.871 22.9696C131.382 19.6926 132.645 15.4234 130.45 12.5071C129.668 11.4548 128.736 10.7934 127.414 10.3424C125.429 9.71105 122.603 9.59079 120.559 10.1921C119.146 10.613 118.124 11.1542 116.981 12.0561L116.29 12.6875C116.169 12.8077 116.049 12.8979 115.959 13.0182C115.839 13.1685 115.779 13.2587 115.628 13.379L116.831 6.97516C116.891 6.67451 116.921 6.37386 116.981 6.04315C117.222 4.78043 117.552 3.42752 117.462 2.25499C117.432 1.62363 117.071 1.11253 116.68 0.841947C116.23 0.48117 115.628 0.300781 115.027 0.300781H110.457C109.164 0.300781 108.112 0.872012 107.481 1.83408C106.849 2.76609 106.669 4.14907 106.489 5.35166L105.256 12.4169C105.015 13.7397 104.625 15.6939 104.444 16.9266C104.384 17.3776 104.264 17.8285 104.204 18.2494C104.143 18.7305 104.053 19.0913 103.993 19.5422L102.189 29.7943C102.039 30.576 101.558 32.9812 101.498 33.6727C101.378 34.7249 101.558 35.7171 102.52 36.2883C103.001 36.5889 103.753 36.7092 104.384 36.7092Z" fill="white"/>
<path fill-rule="evenodd" clip-rule="evenodd" d="M50.1477 29.7041C50.1477 30.7865 50.1176 31.1472 50.3581 32.2596C50.4483 32.8008 50.6588 33.1916 50.8392 33.6727C51.2 34.5445 52.2823 35.7171 53.1241 36.138C54.477 36.8595 53.8757 36.4988 55.1685 36.9497C55.8299 37.2203 57.8142 37.3706 58.5959 37.3706C59.2573 37.3706 59.7684 37.4308 60.4599 37.4308C61.1514 37.4308 61.6324 37.3706 62.3239 37.3706C63.6167 37.3706 64.7892 37.3105 66.1121 37.3105C66.9539 37.3105 68.7878 37.1301 69.5695 36.9497C71.5538 36.4386 72.7864 35.7471 74.2596 34.4844C74.5001 34.2439 75.1616 33.4622 75.372 33.1916C75.823 32.5603 76.4844 31.3877 76.7249 30.6963C77.0857 29.6741 77.4164 28.8022 77.5667 27.7198C77.7471 26.4271 78.1981 24.2323 78.4386 22.8193C78.5288 22.2481 78.619 21.7971 78.7092 21.1958C78.7393 20.9252 78.7994 20.6847 78.8595 20.4141L79.4308 17.107C79.5811 16.3554 80.0922 13.4992 80.0922 12.9881C80.0922 12.0561 79.9419 11.3646 79.1301 10.8235C78.168 10.1921 75.2217 10.3725 73.8387 10.3725C71.8244 10.3725 70.2009 10.9738 69.5996 12.928C69.3591 13.6796 68.6976 17.8285 68.5173 18.7305L68.0061 21.6167C67.8258 22.6389 67.6754 23.5408 67.495 24.563C67.2545 25.8859 66.9839 27.2689 65.4506 27.6297C64.4886 27.8401 62.4141 27.9904 61.7226 27.2388C61.0311 26.4571 61.422 25.2545 61.5723 24.3225C61.6324 23.9918 61.6926 23.5709 61.7527 23.2703L62.6546 18.1893C62.7148 17.8285 62.7749 17.5279 62.835 17.1371C63.0455 15.9345 63.5265 13.7999 63.5265 12.6875C63.5265 11.8457 63.1357 11.2444 62.5043 10.8235C61.5723 10.1921 58.6259 10.3725 57.243 10.3725C55.7097 10.3725 54.5371 10.6431 53.6352 11.7254C53.4849 11.9058 53.4548 11.9659 53.3346 12.2064C52.7934 13.1986 52.7032 14.341 52.4927 15.5436L51.5006 21.1357C51.4405 21.3762 51.4104 21.5566 51.3803 21.8272L51.0196 23.9618C50.8993 24.4428 50.8692 24.8637 50.779 25.3748C50.5385 26.5473 50.1477 28.5917 50.1477 29.7041Z" fill="white"/>
<path fill-rule="evenodd" clip-rule="evenodd" d="M91.006 27.9601C91.006 28.351 90.976 28.6516 90.4949 28.9222C89.7734 29.313 88.3904 29.1627 87.6688 28.9523C85.865 28.4111 86.1957 28.381 85.0231 27.9301C83.6101 27.419 82.4977 27.419 81.265 28.3209C80.784 28.6817 80.4533 29.2228 80.0625 29.6738L78.9501 31.1169C77.8978 32.6803 77.9279 34.1234 79.6115 35.2358C81.5958 36.5586 85.5042 37.3103 87.729 37.3103C90.5551 37.3103 92.7197 36.8593 95.155 35.6567C97.6503 34.394 99.6346 32.1391 100.537 29.4634C101.018 28.0202 101.288 25.6151 100.597 24.2321C100.537 24.1118 100.506 24.0517 100.446 23.9014C100.146 23.2099 99.2137 22.338 98.6124 21.9171C97.6503 21.3158 96.6883 20.925 95.5759 20.6243C95.3053 20.5642 95.0948 20.474 94.7641 20.4139C94.4334 20.3237 94.1628 20.2635 93.8622 20.2034C93.1707 20.0531 90.7655 19.6923 90.7655 18.9407C90.7655 18.0688 91.6975 17.8884 92.4191 17.8884C95.185 17.8884 97.8608 20.2635 99.9052 18.4597L100.236 18.1289C100.687 17.5878 100.657 17.6178 101.048 17.0165C101.829 15.844 102.731 14.7918 102.731 13.3186C102.731 11.7251 101.318 11.2441 100.296 10.8232C99.815 10.6428 98.5823 10.3121 98.0412 10.1918C95.7563 9.71081 92.0884 9.62062 89.8034 10.252C89.4427 10.3722 89.1119 10.4023 88.7812 10.5226C87.8793 10.8533 86.9473 11.1539 86.1055 11.665C84.9029 12.3866 84.3016 12.7774 83.2794 13.8898C81.9866 15.2728 81.1147 17.2871 80.9043 19.1812L80.8141 20.3237C80.8441 21.3759 81.0847 22.4282 81.6258 23.3301C81.716 23.4805 81.8062 23.5707 81.8964 23.6909C82.3774 24.3223 82.9487 24.7733 83.6101 25.1942C84.9329 25.9758 86.827 26.4869 88.3002 26.8177C88.7211 26.8778 91.006 27.3588 91.006 27.9601Z" fill="white"/>
<path fill-rule="evenodd" clip-rule="evenodd" d="M135.412 33.2516C135.412 33.913 135.532 34.4843 135.773 34.9954C136.104 35.5967 136.525 36.0777 137.066 36.4084C137.246 36.5287 137.426 36.6489 137.637 36.7391C138.058 36.8895 138.629 37.0097 139.2 37.0097H157.75C159.434 37.0097 160.576 36.2581 161.659 35.1758C162.771 34.0934 163.402 32.5 163.402 30.9066C163.402 28.9524 161.809 26.908 159.644 26.908H151.647C151.106 26.908 150.835 27.389 150.565 27.6896C150.114 28.1707 149.994 28.1406 149.422 28.4413C148.22 29.0426 147.228 29.253 145.815 29.253C145.153 29.253 144.582 29.0426 144.101 28.8321C142.838 28.321 141.154 26.5171 141.936 24.8636C142.207 24.3525 142.507 24.0518 142.868 23.661C143.259 23.2701 143.65 22.9695 144.101 22.6688C145.875 21.5564 148.43 21.1656 150.294 22.3381C150.655 22.5486 150.835 22.729 151.136 22.9995C151.376 23.2401 151.557 23.6008 152.038 23.6008H160.306C160.967 23.6008 161.989 23.2701 162.41 22.9995C162.891 22.6989 163.342 22.3982 163.793 22.0074C163.823 21.9773 163.823 21.9773 163.853 21.9473C164.755 21.1055 165.747 19.4519 165.747 18.1892C165.747 16.9866 165.747 16.3252 165.146 15.303C164.996 15.0624 164.755 14.7618 164.575 14.5513C164.334 14.3108 164.154 14.1605 163.853 13.9801C163.162 13.5893 162.591 13.469 161.749 13.469L153.902 13.4389C153.241 13.4089 153.241 13.4389 152.85 13.6795C152.549 13.8599 152.248 13.95 151.918 14.0402C150.144 14.5513 148.19 14.371 146.476 14.0402C146.085 13.9801 144.011 13.4089 144.011 13.2285C144.011 12.9278 144.161 12.8978 144.462 12.9278C144.702 12.988 144.852 13.018 145.123 13.018C145.935 13.1082 149.392 13.6193 149.783 13.2285C149.873 13.1684 149.994 12.9579 149.994 12.8677C149.994 12.3566 149.302 12.4769 148.791 12.4769L147.197 12.4167C146.626 12.3265 145.394 12.3867 144.822 12.2965C144.672 12.2965 144.221 12.3566 144.221 12.1762C144.221 11.7253 144.792 11.8756 145.634 11.8756H149.031C149.573 11.8756 150.475 12.056 150.475 11.5148C150.475 11.2442 150.114 11.3043 149.843 11.3344H144.732C144.311 11.3043 144.341 11.1841 144.462 10.9135L146.055 10.8534C146.296 10.8233 146.506 10.8233 146.837 10.8233C147.167 10.8233 147.318 10.7632 147.618 10.7632C148.37 10.7632 149.272 10.7632 150.024 10.673C150.475 10.5828 150.655 9.83117 150.084 9.83117C148.791 9.83117 146.506 10.0116 145.213 10.192C145.003 10.222 144.732 10.2521 144.582 10.2821C144.582 9.68085 145.033 9.77104 145.574 9.62072C146.386 9.35014 147.197 9.22988 148.069 9.10962C149.482 8.89917 151.407 8.80897 152.729 9.3802C153.21 9.59066 153.601 9.9815 153.842 10.0717C153.992 10.1318 154.203 10.1619 154.383 10.1619H162.11C163.553 10.1619 164.815 9.80111 165.838 8.8691L166.74 7.9371C167.251 7.36586 167.611 6.67438 167.882 5.89269C168.784 3.12673 167.281 0 164.244 0H145.965C145.544 0 145.123 0.0300648 144.762 0.120259C144.071 0.300648 143.439 0.541166 142.838 0.932007C142.026 1.47317 141.335 2.22479 140.884 3.09667C140.553 3.75809 140.433 4.38945 140.283 5.23127L139.471 9.8913C139.411 10.2821 139.351 10.6429 139.29 11.0338C139.2 11.4547 139.11 11.8455 139.08 12.2364C138.9 13.5291 138.479 15.5134 138.238 16.8663C138.118 17.648 137.998 18.3996 137.847 19.2114L137.216 22.6989C137.126 23.0897 137.096 23.5407 137.006 23.9015L135.983 29.704C135.833 30.7262 135.412 32.3196 135.412 33.2516Z" fill="#01AA1B"/>
<path fill-rule="evenodd" clip-rule="evenodd" d="M176.091 31.7483C175.098 31.7483 174.196 31.4476 173.685 30.696C173.355 30.245 173.385 29.8842 173.385 29.3431C173.385 27.8098 175.399 26.7876 176.692 26.4268C178.496 25.8856 180.029 25.7954 182.344 25.7954L182.073 27.0281C181.683 28.5614 180.781 29.7039 179.548 30.6359C178.646 31.2973 177.203 31.7483 176.091 31.7483ZM169.266 14.8218C169.266 16.1447 169.446 16.2348 169.777 17.4675C169.987 18.1891 170.168 18.7002 170.709 19.2413C171.551 20.1132 173.024 19.7825 174.016 19.4217C174.227 19.3616 174.437 19.2413 174.678 19.1812C174.948 19.1211 175.129 19.0008 175.399 18.9407C176.692 18.5799 179.548 17.8884 180.751 18.9707L180.991 19.2413C181.262 19.6923 181.081 20.2635 180.931 20.8348C178.285 20.8348 174.768 21.1655 172.332 21.9772C171.882 22.1275 171.491 22.2478 171.07 22.3981C170.889 22.4583 170.679 22.5484 170.529 22.6386C168.454 23.4805 166.68 24.7131 165.418 26.5771C164.786 27.5392 164.215 29.0725 164.215 30.3052C164.215 31.7182 164.185 32.8907 164.967 34.2136L165.388 34.9351C166.049 35.8371 166.891 36.4684 167.943 36.9495C168.965 37.4305 171.19 37.8815 172.423 38.0919C172.753 38.122 173.084 38.1521 173.445 38.2122C173.746 38.2422 174.227 38.2723 174.527 38.2723L175.64 38.3324C178.285 38.3324 180.931 37.9717 183.456 37.2501C183.937 37.0998 184.298 36.9495 184.749 36.7991L185.621 36.4384C186.343 36.0776 186.824 35.807 187.485 35.2959C189.289 33.9731 189.71 32.3195 190.041 30.1849L190.522 27.2686C190.762 25.9758 191.694 20.7746 191.754 19.9328C191.845 18.8505 191.845 17.6178 191.664 16.7159C191.604 16.4453 191.544 16.325 191.484 16.0545C191.333 15.363 191.063 14.8218 190.732 14.2506C188.988 11.0938 184.99 9.83105 181.502 9.83105C178.436 9.83105 177.023 10.1016 174.166 10.9134C173.986 10.9435 173.866 10.9735 173.715 11.0336L172.212 11.5748C171.34 11.8755 170.288 12.4166 169.777 13.2584C169.536 13.6493 169.266 14.2205 169.266 14.8218Z" fill="#01AA1B"/>
<path fill-rule="evenodd" clip-rule="evenodd" d="M197.917 10.9737C196.985 10.9737 196.263 11.0037 195.602 11.3044C194.971 11.5449 194.64 11.8455 194.249 12.2965C193.497 13.2285 193.377 14.371 193.167 15.6036C193.016 16.4755 192.896 17.0167 193.227 17.9186C193.407 18.3996 193.828 18.7604 194.279 18.9709C194.88 19.2415 195.301 19.2715 196.083 19.2715C196.083 20.0833 194.459 27.6596 194.459 29.1929C194.459 30.8465 194.67 31.9889 195.452 33.2516C195.963 34.1235 196.774 34.9052 197.646 35.4464C197.797 35.5065 197.857 35.5666 197.977 35.6568L199.089 36.198C201.284 37.0699 205.283 37.8215 207.658 36.7993C208.68 36.3483 209.131 35.6869 209.522 34.7248C209.642 34.3941 210.093 31.8987 210.153 31.4177C210.273 30.636 210.664 29.253 209.672 28.6217C208.59 27.9001 207.357 28.1406 206.485 27.6596C205.253 26.938 205.764 25.4649 205.944 24.3224L206.846 19.2715C207.748 19.2715 208.981 19.3317 209.732 19.1813C210.123 19.0911 210.514 18.9408 210.845 18.7604C212.468 17.8585 212.558 16.2049 212.859 14.7618C213.641 10.7933 211.085 10.9737 208.289 10.9737C208.379 10.5527 208.44 10.1318 208.53 9.71093C208.65 8.83905 209.131 6.52407 209.131 5.80251C209.131 3.57772 207.447 3.30714 205.644 3.30714C204.2 3.30714 201.675 3.12675 200.502 3.78817C198.759 4.78031 198.759 6.494 198.398 8.20769C198.338 8.59854 198.248 9.1397 198.187 9.56061C198.127 9.80113 198.097 9.98151 198.037 10.2521C198.007 10.4926 197.977 10.7331 197.917 10.9737Z" fill="#01AA1B"/>
<path fill-rule="evenodd" clip-rule="evenodd" d="M0.962891 20.3839C0.962891 20.8048 1.20341 21.0454 1.59425 21.0454H4.81118C5.74319 21.0454 6.04383 19.6323 5.02163 19.6323H1.74457C1.3838 19.6323 0.962891 20.1134 0.962891 20.3839Z" fill="white"/>
<path fill-rule="evenodd" clip-rule="evenodd" d="M4.72046 26.3366H7.96745C8.92953 26.3366 9.20011 24.9536 8.17791 24.9536H4.90085C4.0891 24.9536 3.78845 26.3366 4.72046 26.3366Z" fill="white"/>
<path fill-rule="evenodd" clip-rule="evenodd" d="M0 33.5524C0 33.9132 0.150324 34.2138 0.511101 34.2138H3.96855C4.66004 34.2138 5.2012 32.8008 3.90842 32.8008H0.992137C0.511101 32.8008 0 33.1315 0 33.5524Z" fill="white"/>
<path fill-rule="evenodd" clip-rule="evenodd" d="M4.05664 36.4683C4.05664 36.8291 4.20696 37.1298 4.56774 37.1298H7.96506C8.83694 37.1298 9.01732 35.7769 8.20558 35.7769H4.74813C4.44748 35.7769 4.05664 36.1677 4.05664 36.4683Z" fill="white"/>
<path fill-rule="evenodd" clip-rule="evenodd" d="M5.41211 33.9128C5.41211 34.3337 6.07353 34.6344 6.49444 34.2135C6.94541 33.7324 6.73496 33.1011 6.16373 33.1011C5.77289 33.1011 5.41211 33.522 5.41211 33.9128Z" fill="white"/>
<path fill-rule="evenodd" clip-rule="evenodd" d="M6.25391 39.2344C6.25391 40.0763 7.57676 39.8357 7.57676 39.1142C7.57676 38.1521 6.70488 38.4828 6.52449 38.6933C6.43429 38.7835 6.25391 39.0541 6.25391 39.2344Z" fill="white"/>
<path fill-rule="evenodd" clip-rule="evenodd" d="M2.19531 25.7953C2.19531 26.6973 3.51816 26.3966 3.51816 25.5548C3.51816 24.8333 2.19531 24.8934 2.19531 25.7953Z" fill="white"/>
<path fill-rule="evenodd" clip-rule="evenodd" d="M6.55273 28.5012C6.55273 29.2529 7.87558 29.2228 7.87558 28.2006C7.87558 27.479 6.55273 27.5692 6.55273 28.5012Z" fill="white"/>
<path fill-rule="evenodd" clip-rule="evenodd" d="M6.76619 20.9854C7.75833 20.9854 7.96878 19.7227 6.97665 19.7227C6.64593 19.7227 6.37535 20.0233 6.31522 20.2939C6.19496 20.6246 6.40542 20.9854 6.76619 20.9854Z" fill="white"/>
<path fill-rule="evenodd" clip-rule="evenodd" d="M2.01367 36.5287C2.01367 37.3404 3.30646 37.2803 3.30646 36.2581C3.30646 35.5365 2.01367 35.747 2.01367 36.5287Z" fill="white"/>
</svg>
