<svg width="41" height="40" viewBox="0 0 41 40" fill="none" xmlns="http://www.w3.org/2000/svg">
<path d="M28 12.2769H34.6563C34.9053 12.2753 35.149 12.3477 35.3554 12.4847C35.5617 12.6216 35.7211 12.8167 35.8125 13.0442L38 18.4153" stroke="white" stroke-width="2" stroke-linecap="round" stroke-linejoin="round"/>
<path d="M3 22.0981H28" stroke="white" stroke-width="2" stroke-linecap="round" stroke-linejoin="round"/>
<path d="M29.875 33.1473C31.9461 33.1473 33.625 31.4984 33.625 29.4643C33.625 27.4302 31.9461 25.7812 29.875 25.7812C27.8039 25.7812 26.125 27.4302 26.125 29.4643C26.125 31.4984 27.8039 33.1473 29.875 33.1473Z" stroke="white" stroke-width="2" stroke-miterlimit="10"/>
<path d="M11.125 33.1473C13.1961 33.1473 14.875 31.4984 14.875 29.4643C14.875 27.4302 13.1961 25.7812 11.125 25.7812C9.05393 25.7812 7.375 27.4302 7.375 29.4643C7.375 31.4984 9.05393 33.1473 11.125 33.1473Z" stroke="white" stroke-width="2" stroke-miterlimit="10"/>
<path d="M26.125 29.4644H14.875" stroke="white" stroke-width="2" stroke-linecap="round" stroke-linejoin="round"/>
<path d="M7.375 29.4641H4.25C3.91848 29.4641 3.60054 29.3348 3.36612 29.1046C3.1317 28.8743 3 28.5621 3 28.2365V11.049C3 10.7234 3.1317 10.4111 3.36612 10.1809C3.60054 9.95063 3.91848 9.82129 4.25 9.82129H28V26.2722" stroke="white" stroke-width="2" stroke-linecap="round" stroke-linejoin="round"/>
<path d="M28 18.415H38V28.2365C38 28.5621 37.8683 28.8743 37.6339 29.1046C37.3995 29.3348 37.0815 29.4641 36.75 29.4641H33.625" stroke="white" stroke-width="2" stroke-linecap="round" stroke-linejoin="round"/>
</svg>
